<svg width="600" height="130" viewBox="0 0 600 130" fill="none" xmlns="http://www.w3.org/2000/svg">
<g id="banner-frame-essence-bot">
<g id="banner-text-essence" filter="url(#filter0_d_1_2)">
<path d="M435.173 94V72.76H445.103C446.043 72.76 446.903 72.86 447.683 73.06C448.483 73.24 449.173 73.55 449.753 73.99C450.353 74.41 450.823 74.98 451.163 75.7C451.503 76.4 451.673 77.29 451.673 78.37C451.673 79.19 451.483 79.97 451.103 80.71C450.723 81.45 450.183 82.02 449.483 82.42C450.423 82.78 451.173 83.37 451.733 84.19C452.313 85.01 452.603 86.08 452.603 87.4C452.603 88.64 452.363 89.68 451.883 90.52C451.423 91.36 450.783 92.04 449.963 92.56C449.163 93.08 448.223 93.45 447.143 93.67C446.063 93.89 444.913 94 443.693 94H435.173ZM440.033 89.53H444.413C444.913 89.53 445.363 89.49 445.763 89.41C446.183 89.31 446.533 89.18 446.813 89.02C447.113 88.84 447.333 88.61 447.473 88.33C447.633 88.03 447.713 87.69 447.713 87.31C447.713 86.91 447.643 86.58 447.503 86.32C447.383 86.06 447.193 85.85 446.933 85.69C446.673 85.51 446.363 85.39 446.003 85.33C445.643 85.25 445.233 85.21 444.773 85.21H440.033V89.53ZM440.033 81.22H443.903C444.383 81.22 444.803 81.17 445.163 81.07C445.543 80.97 445.853 80.83 446.093 80.65C446.333 80.45 446.513 80.22 446.633 79.96C446.773 79.68 446.843 79.36 446.843 79C446.843 78.52 446.723 78.16 446.483 77.92C446.263 77.66 445.943 77.49 445.523 77.41C445.123 77.31 444.653 77.26 444.113 77.26H440.033V81.22ZM462.371 94.24C460.791 94.24 459.381 93.92 458.141 93.28C456.921 92.64 455.961 91.72 455.261 90.52C454.561 89.3 454.211 87.84 454.211 86.14C454.211 84.4 454.561 82.92 455.261 81.7C455.981 80.46 456.951 79.52 458.171 78.88C459.391 78.22 460.771 77.89 462.311 77.89C463.871 77.89 465.251 78.23 466.451 78.91C467.651 79.57 468.601 80.52 469.301 81.76C470.001 82.98 470.351 84.46 470.351 86.2C470.351 87.9 470.011 89.35 469.331 90.55C468.671 91.75 467.741 92.67 466.541 93.31C465.341 93.93 463.951 94.24 462.371 94.24ZM462.281 89.83C463.121 89.83 463.791 89.65 464.291 89.29C464.791 88.93 465.141 88.47 465.341 87.91C465.561 87.35 465.671 86.77 465.671 86.17C465.671 85.57 465.561 84.97 465.341 84.37C465.141 83.77 464.791 83.28 464.291 82.9C463.811 82.5 463.141 82.3 462.281 82.3C461.441 82.3 460.771 82.5 460.271 82.9C459.771 83.28 459.411 83.77 459.191 84.37C458.971 84.95 458.861 85.55 458.861 86.17C458.861 86.77 458.971 87.36 459.191 87.94C459.431 88.5 459.791 88.96 460.271 89.32C460.771 89.66 461.441 89.83 462.281 89.83ZM479.91 94C478.55 94 477.4 93.85 476.46 93.55C475.52 93.23 474.8 92.69 474.3 91.93C473.82 91.15 473.58 90.06 473.58 88.66V82.42H471.3V78.19H473.58V74.11H478.35V78.19H481.5V82.42H478.35V87.97C478.35 88.49 478.44 88.92 478.62 89.26C478.8 89.58 479.26 89.74 480 89.74H481.35V94H479.91Z" fill="#EBA0AC"/>
</g>
<g id="baner-text-essence" filter="url(#filter1_d_1_2)">
<path d="M118.878 94V37.36H160.638V49.36H131.838V60.08H156.078V71.6H131.838V82.08H160.638V94H118.878ZM183.358 94.64C181.332 94.64 179.252 94.4 177.118 93.92C175.038 93.44 173.092 92.6667 171.278 91.6C169.465 90.5333 167.945 89.0667 166.718 87.2C165.492 85.3333 164.665 82.9867 164.238 80.16H177.038C177.358 81.0133 177.838 81.76 178.478 82.4C179.172 82.9867 179.998 83.44 180.958 83.76C181.972 84.0267 182.985 84.16 183.998 84.16C184.692 84.16 185.358 84.1067 185.998 84C186.638 83.8933 187.198 83.7067 187.678 83.44C188.212 83.1733 188.612 82.8533 188.878 82.48C189.145 82.0533 189.278 81.5467 189.278 80.96C189.278 80.1067 188.985 79.4933 188.398 79.12C187.865 78.6933 187.092 78.3733 186.078 78.16C185.118 77.8933 183.998 77.6267 182.718 77.36C180.638 76.9333 178.398 76.4 175.998 75.76C173.652 75.12 171.652 74.2667 169.998 73.2C169.198 72.6667 168.505 72.08 167.918 71.44C167.332 70.7467 166.852 70.0267 166.478 69.28C166.158 68.48 165.892 67.6533 165.678 66.8C165.518 65.8933 165.438 64.9333 165.438 63.92C165.438 61.5733 165.945 59.5733 166.958 57.92C168.025 56.2667 169.385 54.9333 171.038 53.92C172.745 52.9067 174.638 52.1867 176.718 51.76C178.798 51.28 180.878 51.04 182.958 51.04C185.892 51.04 188.612 51.52 191.118 52.48C193.625 53.3867 195.705 54.88 197.358 56.96C199.065 58.9867 200.132 61.6533 200.558 64.96H188.318C188.158 63.8933 187.545 63.04 186.478 62.4C185.412 61.76 184.078 61.44 182.478 61.44C181.892 61.44 181.305 61.52 180.718 61.68C180.132 61.7867 179.598 61.9467 179.118 62.16C178.692 62.32 178.318 62.5867 177.998 62.96C177.732 63.3333 177.598 63.7867 177.598 64.32C177.598 64.6933 177.705 65.0667 177.918 65.44C178.185 65.8133 178.558 66.16 179.038 66.48C179.572 66.7467 180.238 67.0133 181.038 67.28C182.852 67.6533 184.612 68.0267 186.318 68.4C188.025 68.72 189.652 69.04 191.198 69.36C192.905 69.7333 194.558 70.3467 196.158 71.2C197.758 72 199.065 73.1467 200.078 74.64C201.145 76.1333 201.678 78.16 201.678 80.72C201.678 83.3867 201.118 85.6267 199.998 87.44C198.932 89.2533 197.492 90.6667 195.678 91.68C193.865 92.6933 191.892 93.44 189.758 93.92C187.625 94.4 185.492 94.64 183.358 94.64ZM223.652 94.64C221.626 94.64 219.546 94.4 217.412 93.92C215.332 93.44 213.386 92.6667 211.572 91.6C209.759 90.5333 208.239 89.0667 207.012 87.2C205.786 85.3333 204.959 82.9867 204.532 80.16H217.332C217.652 81.0133 218.132 81.76 218.772 82.4C219.466 82.9867 220.292 83.44 221.252 83.76C222.266 84.0267 223.279 84.16 224.292 84.16C224.986 84.16 225.652 84.1067 226.292 84C226.932 83.8933 227.492 83.7067 227.972 83.44C228.506 83.1733 228.906 82.8533 229.172 82.48C229.439 82.0533 229.572 81.5467 229.572 80.96C229.572 80.1067 229.279 79.4933 228.692 79.12C228.159 78.6933 227.386 78.3733 226.372 78.16C225.412 77.8933 224.292 77.6267 223.012 77.36C220.932 76.9333 218.692 76.4 216.292 75.76C213.946 75.12 211.946 74.2667 210.292 73.2C209.492 72.6667 208.799 72.08 208.212 71.44C207.626 70.7467 207.146 70.0267 206.772 69.28C206.452 68.48 206.186 67.6533 205.972 66.8C205.812 65.8933 205.732 64.9333 205.732 63.92C205.732 61.5733 206.239 59.5733 207.252 57.92C208.319 56.2667 209.679 54.9333 211.332 53.92C213.039 52.9067 214.932 52.1867 217.012 51.76C219.092 51.28 221.172 51.04 223.252 51.04C226.186 51.04 228.906 51.52 231.412 52.48C233.919 53.3867 235.999 54.88 237.652 56.96C239.359 58.9867 240.426 61.6533 240.852 64.96H228.612C228.452 63.8933 227.839 63.04 226.772 62.4C225.706 61.76 224.372 61.44 222.772 61.44C222.186 61.44 221.599 61.52 221.012 61.68C220.426 61.7867 219.892 61.9467 219.412 62.16C218.986 62.32 218.612 62.5867 218.292 62.96C218.026 63.3333 217.892 63.7867 217.892 64.32C217.892 64.6933 217.999 65.0667 218.212 65.44C218.479 65.8133 218.852 66.16 219.332 66.48C219.866 66.7467 220.532 67.0133 221.332 67.28C223.146 67.6533 224.906 68.0267 226.612 68.4C228.319 68.72 229.946 69.04 231.492 69.36C233.199 69.7333 234.852 70.3467 236.452 71.2C238.052 72 239.359 73.1467 240.372 74.64C241.439 76.1333 241.972 78.16 241.972 80.72C241.972 83.3867 241.412 85.6267 240.292 87.44C239.226 89.2533 237.786 90.6667 235.972 91.68C234.159 92.6933 232.186 93.44 230.052 93.92C227.919 94.4 225.786 94.64 223.652 94.64ZM266.666 94.64C262.293 94.64 258.506 93.76 255.306 92C252.159 90.24 249.733 87.76 248.026 84.56C246.319 81.3067 245.466 77.4933 245.466 73.12C245.466 68.7467 246.346 64.9067 248.106 61.6C249.866 58.2933 252.319 55.7067 255.466 53.84C258.666 51.9733 262.426 51.04 266.746 51.04C269.893 51.04 272.666 51.5467 275.066 52.56C277.519 53.5733 279.599 55.0133 281.306 56.88C283.066 58.7467 284.373 60.96 285.226 63.52C286.133 66.08 286.586 68.88 286.586 71.92C286.533 72.72 286.479 73.52 286.426 74.32C286.373 75.0667 286.239 75.84 286.026 76.64H258.026C258.186 77.9733 258.586 79.2 259.226 80.32C259.866 81.44 260.773 82.32 261.946 82.96C263.119 83.6 264.613 83.92 266.426 83.92C267.706 83.92 268.853 83.7867 269.866 83.52C270.933 83.2 271.813 82.7733 272.506 82.24C273.199 81.6533 273.653 81.0133 273.866 80.32H286.346C285.653 83.68 284.319 86.4267 282.346 88.56C280.373 90.64 278.026 92.1867 275.306 93.2C272.586 94.16 269.706 94.64 266.666 94.64ZM258.266 68.08H274.506C274.506 66.96 274.213 65.8667 273.626 64.8C273.093 63.7333 272.239 62.88 271.066 62.24C269.893 61.5467 268.373 61.2 266.506 61.2C264.693 61.2 263.173 61.5467 261.946 62.24C260.719 62.9333 259.813 63.8133 259.226 64.88C258.639 65.9467 258.319 67.0133 258.266 68.08ZM292.282 94V51.84H304.042L304.762 56.16C305.988 54.7733 307.348 53.7067 308.842 52.96C310.388 52.2133 311.908 51.7067 313.402 51.44C314.948 51.1733 316.282 51.04 317.402 51.04C321.402 51.04 324.522 51.9467 326.762 53.76C329.055 55.52 330.682 57.8933 331.642 60.88C332.602 63.8667 333.082 67.1467 333.082 70.72V94H320.442V72.08C320.442 70.96 320.335 69.8667 320.122 68.8C319.908 67.68 319.535 66.6667 319.002 65.76C318.522 64.8 317.828 64.0533 316.922 63.52C316.015 62.9333 314.842 62.64 313.402 62.64C311.535 62.64 309.962 63.0933 308.682 64C307.402 64.9067 306.468 66.1333 305.882 67.68C305.295 69.1733 305.002 70.8533 305.002 72.72V94H292.282ZM359.352 94.64C355.085 94.64 351.405 93.7867 348.312 92.08C345.218 90.32 342.818 87.8133 341.112 84.56C339.458 81.3067 338.632 77.4667 338.632 73.04C338.632 68.5067 339.485 64.6133 341.192 61.36C342.952 58.0533 345.405 55.52 348.552 53.76C351.698 51.9467 355.432 51.04 359.752 51.04C363.325 51.04 366.498 51.7067 369.272 53.04C372.098 54.32 374.338 56.1867 375.992 58.64C377.698 61.0933 378.658 64.1067 378.872 67.68H366.552C366.125 65.9733 365.298 64.72 364.072 63.92C362.898 63.0667 361.458 62.64 359.752 62.64C357.565 62.64 355.832 63.2 354.552 64.32C353.325 65.3867 352.445 66.72 351.912 68.32C351.432 69.92 351.192 71.4933 351.192 73.04C351.192 74.7467 351.458 76.3733 351.992 77.92C352.578 79.4667 353.485 80.72 354.712 81.68C355.992 82.64 357.618 83.12 359.592 83.12C361.405 83.12 362.925 82.6933 364.152 81.84C365.432 80.9867 366.258 79.7333 366.632 78.08H379.272C379.112 81.7067 378.098 84.7467 376.232 87.2C374.418 89.6533 372.045 91.52 369.112 92.8C366.178 94.0267 362.925 94.64 359.352 94.64ZM404.266 94.64C399.893 94.64 396.106 93.76 392.906 92C389.759 90.24 387.333 87.76 385.626 84.56C383.919 81.3067 383.066 77.4933 383.066 73.12C383.066 68.7467 383.946 64.9067 385.706 61.6C387.466 58.2933 389.919 55.7067 393.066 53.84C396.266 51.9733 400.026 51.04 404.346 51.04C407.493 51.04 410.266 51.5467 412.666 52.56C415.119 53.5733 417.199 55.0133 418.906 56.88C420.666 58.7467 421.973 60.96 422.826 63.52C423.733 66.08 424.186 68.88 424.186 71.92C424.133 72.72 424.079 73.52 424.026 74.32C423.973 75.0667 423.839 75.84 423.626 76.64H395.626C395.786 77.9733 396.186 79.2 396.826 80.32C397.466 81.44 398.373 82.32 399.546 82.96C400.719 83.6 402.213 83.92 404.026 83.92C405.306 83.92 406.453 83.7867 407.466 83.52C408.533 83.2 409.413 82.7733 410.106 82.24C410.799 81.6533 411.253 81.0133 411.466 80.32H423.946C423.253 83.68 421.919 86.4267 419.946 88.56C417.973 90.64 415.626 92.1867 412.906 93.2C410.186 94.16 407.306 94.64 404.266 94.64ZM395.866 68.08H412.106C412.106 66.96 411.813 65.8667 411.226 64.8C410.693 63.7333 409.839 62.88 408.666 62.24C407.493 61.5467 405.973 61.2 404.106 61.2C402.293 61.2 400.773 61.5467 399.546 62.24C398.319 62.9333 397.413 63.8133 396.826 64.88C396.239 65.9467 395.919 67.0133 395.866 68.08Z" fill="#EBA0AC"/>
</g>
</g>
<defs>
<filter id="filter0_d_1_2" x="435.173" y="72.76" width="51.7261" height="26.88" filterUnits="userSpaceOnUse" color-interpolation-filters="sRGB">
<feFlood flood-opacity="0" result="BackgroundImageFix"/>
<feColorMatrix in="SourceAlpha" type="matrix" values="0 0 0 0 0 0 0 0 0 0 0 0 0 0 0 0 0 0 127 0" result="hardAlpha"/>
<feOffset dx="3" dy="3"/>
<feGaussianBlur stdDeviation="1.2"/>
<feComposite in2="hardAlpha" operator="out"/>
<feColorMatrix type="matrix" values="0 0 0 0 0 0 0 0 0 0 0 0 0 0 0 0 0 0 0.36 0"/>
<feBlend mode="normal" in2="BackgroundImageFix" result="effect1_dropShadow_1_2"/>
<feBlend mode="normal" in="SourceGraphic" in2="effect1_dropShadow_1_2" result="shape"/>
</filter>
<filter id="filter1_d_1_2" x="118.878" y="37.36" width="310.707" height="62.68" filterUnits="userSpaceOnUse" color-interpolation-filters="sRGB">
<feFlood flood-opacity="0" result="BackgroundImageFix"/>
<feColorMatrix in="SourceAlpha" type="matrix" values="0 0 0 0 0 0 0 0 0 0 0 0 0 0 0 0 0 0 127 0" result="hardAlpha"/>
<feOffset dx="3" dy="3"/>
<feGaussianBlur stdDeviation="1.2"/>
<feComposite in2="hardAlpha" operator="out"/>
<feColorMatrix type="matrix" values="0 0 0 0 0 0 0 0 0 0 0 0 0 0 0 0 0 0 0.36 0"/>
<feBlend mode="normal" in2="BackgroundImageFix" result="effect1_dropShadow_1_2"/>
<feBlend mode="normal" in="SourceGraphic" in2="effect1_dropShadow_1_2" result="shape"/>
</filter>
</defs>
</svg>
