<svg width="105" height="105" viewBox="0 0 105 105" fill="none" xmlns="http://www.w3.org/2000/svg">
<g id="logo-ttb-frame-essence-bot" clip-path="url(#clip0_1_2)">
<g id="logo-text-e" filter="url(#filter0_d_1_2)">
<path d="M31.58 64V7.36H73.34V19.36H44.54V30.08H68.78V41.6H44.54V52.08H73.34V64H31.58Z" fill="#EBA0AC"/>
</g>
<g id="logo-text-ssence" filter="url(#filter1_d_1_2)">
<path d="M34.4395 73.104C34.1102 73.104 33.7722 73.065 33.4255 72.987C33.0875 72.909 32.7712 72.7833 32.4765 72.61C32.1818 72.4367 31.9348 72.1983 31.7355 71.895C31.5362 71.5917 31.4018 71.2103 31.3325 70.751H33.4125C33.4645 70.8897 33.5425 71.011 33.6465 71.115C33.7592 71.2103 33.8935 71.284 34.0495 71.336C34.2142 71.3793 34.3788 71.401 34.5435 71.401C34.6562 71.401 34.7645 71.3923 34.8685 71.375C34.9725 71.3577 35.0635 71.3273 35.1415 71.284C35.2282 71.2407 35.2932 71.1887 35.3365 71.128C35.3798 71.0587 35.4015 70.9763 35.4015 70.881C35.4015 70.7423 35.3538 70.6427 35.2585 70.582C35.1718 70.5127 35.0462 70.4607 34.8815 70.426C34.7255 70.3827 34.5435 70.3393 34.3355 70.296C33.9975 70.2267 33.6335 70.14 33.2435 70.036C32.8622 69.932 32.5372 69.7933 32.2685 69.62C32.1385 69.5333 32.0258 69.438 31.9305 69.334C31.8352 69.2213 31.7572 69.1043 31.6965 68.983C31.6445 68.853 31.6012 68.7187 31.5665 68.58C31.5405 68.4327 31.5275 68.2767 31.5275 68.112C31.5275 67.7307 31.6098 67.4057 31.7745 67.137C31.9478 66.8683 32.1688 66.6517 32.4375 66.487C32.7148 66.3223 33.0225 66.2053 33.3605 66.136C33.6985 66.058 34.0365 66.019 34.3745 66.019C34.8512 66.019 35.2932 66.097 35.7005 66.253C36.1078 66.4003 36.4458 66.643 36.7145 66.981C36.9918 67.3103 37.1652 67.7437 37.2345 68.281H35.2455C35.2195 68.1077 35.1198 67.969 34.9465 67.865C34.7732 67.761 34.5565 67.709 34.2965 67.709C34.2012 67.709 34.1058 67.722 34.0105 67.748C33.9152 67.7653 33.8285 67.7913 33.7505 67.826C33.6812 67.852 33.6205 67.8953 33.5685 67.956C33.5252 68.0167 33.5035 68.0903 33.5035 68.177C33.5035 68.2377 33.5208 68.2983 33.5555 68.359C33.5988 68.4197 33.6595 68.476 33.7375 68.528C33.8242 68.5713 33.9325 68.6147 34.0625 68.658C34.3572 68.7187 34.6432 68.7793 34.9205 68.84C35.1978 68.892 35.4622 68.944 35.7135 68.996C35.9908 69.0567 36.2595 69.1563 36.5195 69.295C36.7795 69.425 36.9918 69.6113 37.1565 69.854C37.3298 70.0967 37.4165 70.426 37.4165 70.842C37.4165 71.2753 37.3255 71.6393 37.1435 71.934C36.9702 72.2287 36.7362 72.4583 36.4415 72.623C36.1468 72.7877 35.8262 72.909 35.4795 72.987C35.1328 73.065 34.7862 73.104 34.4395 73.104ZM40.9872 73.104C40.6579 73.104 40.3199 73.065 39.9732 72.987C39.6352 72.909 39.3189 72.7833 39.0242 72.61C38.7296 72.4367 38.4826 72.1983 38.2832 71.895C38.0839 71.5917 37.9496 71.2103 37.8802 70.751H39.9602C40.0122 70.8897 40.0902 71.011 40.1942 71.115C40.3069 71.2103 40.4412 71.284 40.5972 71.336C40.7619 71.3793 40.9266 71.401 41.0912 71.401C41.2039 71.401 41.3122 71.3923 41.4162 71.375C41.5202 71.3577 41.6112 71.3273 41.6892 71.284C41.7759 71.2407 41.8409 71.1887 41.8842 71.128C41.9276 71.0587 41.9492 70.9763 41.9492 70.881C41.9492 70.7423 41.9016 70.6427 41.8062 70.582C41.7196 70.5127 41.5939 70.4607 41.4292 70.426C41.2732 70.3827 41.0912 70.3393 40.8832 70.296C40.5452 70.2267 40.1812 70.14 39.7912 70.036C39.4099 69.932 39.0849 69.7933 38.8162 69.62C38.6862 69.5333 38.5736 69.438 38.4782 69.334C38.3829 69.2213 38.3049 69.1043 38.2442 68.983C38.1922 68.853 38.1489 68.7187 38.1142 68.58C38.0882 68.4327 38.0752 68.2767 38.0752 68.112C38.0752 67.7307 38.1576 67.4057 38.3222 67.137C38.4956 66.8683 38.7166 66.6517 38.9852 66.487C39.2626 66.3223 39.5702 66.2053 39.9082 66.136C40.2462 66.058 40.5842 66.019 40.9222 66.019C41.3989 66.019 41.8409 66.097 42.2482 66.253C42.6556 66.4003 42.9936 66.643 43.2622 66.981C43.5396 67.3103 43.7129 67.7437 43.7822 68.281H41.7932C41.7672 68.1077 41.6676 67.969 41.4942 67.865C41.3209 67.761 41.1042 67.709 40.8442 67.709C40.7489 67.709 40.6536 67.722 40.5582 67.748C40.4629 67.7653 40.3762 67.7913 40.2982 67.826C40.2289 67.852 40.1682 67.8953 40.1162 67.956C40.0729 68.0167 40.0512 68.0903 40.0512 68.177C40.0512 68.2377 40.0686 68.2983 40.1032 68.359C40.1466 68.4197 40.2072 68.476 40.2852 68.528C40.3719 68.5713 40.4802 68.6147 40.6102 68.658C40.9049 68.7187 41.1909 68.7793 41.4682 68.84C41.7456 68.892 42.0099 68.944 42.2612 68.996C42.5386 69.0567 42.8072 69.1563 43.0672 69.295C43.3272 69.425 43.5396 69.6113 43.7042 69.854C43.8776 70.0967 43.9642 70.426 43.9642 70.842C43.9642 71.2753 43.8732 71.6393 43.6912 71.934C43.5179 72.2287 43.2839 72.4583 42.9892 72.623C42.6946 72.7877 42.3739 72.909 42.0272 72.987C41.6806 73.065 41.3339 73.104 40.9872 73.104ZM47.977 73.104C47.2663 73.104 46.651 72.961 46.131 72.675C45.6196 72.389 45.2253 71.986 44.948 71.466C44.6706 70.9373 44.532 70.3177 44.532 69.607C44.532 68.8963 44.675 68.2723 44.961 67.735C45.247 67.1977 45.6456 66.7773 46.157 66.474C46.677 66.1707 47.288 66.019 47.99 66.019C48.5013 66.019 48.952 66.1013 49.342 66.266C49.7406 66.4307 50.0786 66.6647 50.356 66.968C50.642 67.2713 50.8543 67.631 50.993 68.047C51.1403 68.463 51.214 68.918 51.214 69.412C51.2053 69.542 51.1966 69.672 51.188 69.802C51.1793 69.9233 51.1576 70.049 51.123 70.179H46.573C46.599 70.3957 46.664 70.595 46.768 70.777C46.872 70.959 47.0193 71.102 47.21 71.206C47.4006 71.31 47.6433 71.362 47.938 71.362C48.146 71.362 48.3323 71.3403 48.497 71.297C48.6703 71.245 48.8133 71.1757 48.926 71.089C49.0386 70.9937 49.1123 70.8897 49.147 70.777H51.175C51.0623 71.323 50.8456 71.7693 50.525 72.116C50.2043 72.454 49.823 72.7053 49.381 72.87C48.939 73.026 48.471 73.104 47.977 73.104ZM46.612 68.788H49.251C49.251 68.606 49.2033 68.4283 49.108 68.255C49.0213 68.0817 48.8826 67.943 48.692 67.839C48.5013 67.7263 48.2543 67.67 47.951 67.67C47.6563 67.67 47.4093 67.7263 47.21 67.839C47.0106 67.9517 46.8633 68.0947 46.768 68.268C46.6726 68.4413 46.6206 68.6147 46.612 68.788ZM52.1395 73V66.149H54.0505L54.1675 66.851C54.3668 66.6257 54.5878 66.4523 54.8305 66.331C55.0818 66.2097 55.3288 66.1273 55.5715 66.084C55.8228 66.0407 56.0395 66.019 56.2215 66.019C56.8715 66.019 57.3785 66.1663 57.7425 66.461C58.1152 66.747 58.3795 67.1327 58.5355 67.618C58.6915 68.1033 58.7695 68.6363 58.7695 69.217V73H56.7155V69.438C56.7155 69.256 56.6982 69.0783 56.6635 68.905C56.6288 68.723 56.5682 68.5583 56.4815 68.411C56.4035 68.255 56.2908 68.1337 56.1435 68.047C55.9962 67.9517 55.8055 67.904 55.5715 67.904C55.2682 67.904 55.0125 67.9777 54.8045 68.125C54.5965 68.2723 54.4448 68.4717 54.3495 68.723C54.2542 68.9657 54.2065 69.2387 54.2065 69.542V73H52.1395ZM63.0384 73.104C62.345 73.104 61.747 72.9653 61.2444 72.688C60.7417 72.402 60.3517 71.9947 60.0744 71.466C59.8057 70.9373 59.6714 70.3133 59.6714 69.594C59.6714 68.8573 59.81 68.2247 60.0874 67.696C60.3734 67.1587 60.772 66.747 61.2834 66.461C61.7947 66.1663 62.4014 66.019 63.1034 66.019C63.684 66.019 64.1997 66.1273 64.6504 66.344C65.1097 66.552 65.4737 66.8553 65.7424 67.254C66.0197 67.6527 66.1757 68.1423 66.2104 68.723H64.2084C64.139 68.4457 64.0047 68.242 63.8054 68.112C63.6147 67.9733 63.3807 67.904 63.1034 67.904C62.748 67.904 62.4664 67.995 62.2584 68.177C62.059 68.3503 61.916 68.567 61.8294 68.827C61.7514 69.087 61.7124 69.3427 61.7124 69.594C61.7124 69.8713 61.7557 70.1357 61.8424 70.387C61.9377 70.6383 62.085 70.842 62.2844 70.998C62.4924 71.154 62.7567 71.232 63.0774 71.232C63.372 71.232 63.619 71.1627 63.8184 71.024C64.0264 70.8853 64.1607 70.6817 64.2214 70.413H66.2754C66.2494 71.0023 66.0847 71.4963 65.7814 71.895C65.4867 72.2937 65.101 72.597 64.6244 72.805C64.1477 73.0043 63.619 73.104 63.0384 73.104ZM70.337 73.104C69.6263 73.104 69.011 72.961 68.491 72.675C67.9796 72.389 67.5853 71.986 67.308 71.466C67.0306 70.9373 66.892 70.3177 66.892 69.607C66.892 68.8963 67.035 68.2723 67.321 67.735C67.607 67.1977 68.0056 66.7773 68.517 66.474C69.037 66.1707 69.648 66.019 70.35 66.019C70.8613 66.019 71.312 66.1013 71.702 66.266C72.1006 66.4307 72.4386 66.6647 72.716 66.968C73.002 67.2713 73.2143 67.631 73.353 68.047C73.5003 68.463 73.574 68.918 73.574 69.412C73.5653 69.542 73.5566 69.672 73.548 69.802C73.5393 69.9233 73.5176 70.049 73.483 70.179H68.933C68.959 70.3957 69.024 70.595 69.128 70.777C69.232 70.959 69.3793 71.102 69.57 71.206C69.7606 71.31 70.0033 71.362 70.298 71.362C70.506 71.362 70.6923 71.3403 70.857 71.297C71.0303 71.245 71.1733 71.1757 71.286 71.089C71.3986 70.9937 71.4723 70.8897 71.507 70.777H73.535C73.4223 71.323 73.2056 71.7693 72.885 72.116C72.5643 72.454 72.183 72.7053 71.741 72.87C71.299 73.026 70.831 73.104 70.337 73.104ZM68.972 68.788H71.611C71.611 68.606 71.5633 68.4283 71.468 68.255C71.3813 68.0817 71.2426 67.943 71.052 67.839C70.8613 67.7263 70.6143 67.67 70.311 67.67C70.0163 67.67 69.7693 67.7263 69.57 67.839C69.3706 67.9517 69.2233 68.0947 69.128 68.268C69.0326 68.4413 68.9806 68.6147 68.972 68.788Z" fill="#EBA0AC"/>
</g>
<g id="logo-text-bot" filter="url(#filter2_d_1_2)">
<path d="M31.5561 98V78.884H40.4931C41.3391 78.884 42.1131 78.974 42.8151 79.154C43.5351 79.316 44.1561 79.595 44.6781 79.991C45.2181 80.369 45.6411 80.882 45.9471 81.53C46.2531 82.16 46.4061 82.961 46.4061 83.933C46.4061 84.671 46.2351 85.373 45.8931 86.039C45.5511 86.705 45.0651 87.218 44.4351 87.578C45.2811 87.902 45.9561 88.433 46.4601 89.171C46.9821 89.909 47.2431 90.872 47.2431 92.06C47.2431 93.176 47.0271 94.112 46.5951 94.868C46.1811 95.624 45.6051 96.236 44.8671 96.704C44.1471 97.172 43.3011 97.505 42.3291 97.703C41.3571 97.901 40.3221 98 39.2241 98H31.5561ZM35.9301 93.977H39.8721C40.3221 93.977 40.7271 93.941 41.0871 93.869C41.4651 93.779 41.7801 93.662 42.0321 93.518C42.3021 93.356 42.5001 93.149 42.6261 92.897C42.7701 92.627 42.8421 92.321 42.8421 91.979C42.8421 91.619 42.7791 91.322 42.6531 91.088C42.5451 90.854 42.3741 90.665 42.1401 90.521C41.9061 90.359 41.6271 90.251 41.3031 90.197C40.9791 90.125 40.6101 90.089 40.1961 90.089H35.9301V93.977ZM35.9301 86.498H39.4131C39.8451 86.498 40.2231 86.453 40.5471 86.363C40.8891 86.273 41.1681 86.147 41.3841 85.985C41.6001 85.805 41.7621 85.598 41.8701 85.364C41.9961 85.112 42.0591 84.824 42.0591 84.5C42.0591 84.068 41.9511 83.744 41.7351 83.528C41.5371 83.294 41.2491 83.141 40.8711 83.069C40.5111 82.979 40.0881 82.934 39.6021 82.934H35.9301V86.498ZM56.0341 98.216C54.6121 98.216 53.3431 97.928 52.2271 97.352C51.1291 96.776 50.2651 95.948 49.6351 94.868C49.0051 93.77 48.6901 92.456 48.6901 90.926C48.6901 89.36 49.0051 88.028 49.6351 86.93C50.2831 85.814 51.1561 84.968 52.2541 84.392C53.3521 83.798 54.5941 83.501 55.9801 83.501C57.3841 83.501 58.6261 83.807 59.7061 84.419C60.7861 85.013 61.6411 85.868 62.2711 86.984C62.9011 88.082 63.2161 89.414 63.2161 90.98C63.2161 92.51 62.9101 93.815 62.2981 94.895C61.7041 95.975 60.8671 96.803 59.7871 97.379C58.7071 97.937 57.4561 98.216 56.0341 98.216ZM55.9531 94.247C56.7091 94.247 57.3121 94.085 57.7621 93.761C58.2121 93.437 58.5271 93.023 58.7071 92.519C58.9051 92.015 59.0041 91.493 59.0041 90.953C59.0041 90.413 58.9051 89.873 58.7071 89.333C58.5271 88.793 58.2121 88.352 57.7621 88.01C57.3301 87.65 56.7271 87.47 55.9531 87.47C55.1971 87.47 54.5941 87.65 54.1441 88.01C53.6941 88.352 53.3701 88.793 53.1721 89.333C52.9741 89.855 52.8751 90.395 52.8751 90.953C52.8751 91.493 52.9741 92.024 53.1721 92.546C53.3881 93.05 53.7121 93.464 54.1441 93.788C54.5941 94.094 55.1971 94.247 55.9531 94.247ZM71.8186 98C70.5946 98 69.5596 97.865 68.7136 97.595C67.8676 97.307 67.2196 96.821 66.7696 96.137C66.3376 95.435 66.1216 94.454 66.1216 93.194V87.578H64.0696V83.771H66.1216V80.099H70.4146V83.771H73.2496V87.578H70.4146V92.573C70.4146 93.041 70.4956 93.428 70.6576 93.734C70.8196 94.022 71.2336 94.166 71.8996 94.166H73.1146V98H71.8186Z" fill="#EBA0AC"/>
</g>
</g>
<defs>
<filter id="filter0_d_1_2" x="31.58" y="7.36" width="47.16" height="62.04" filterUnits="userSpaceOnUse" color-interpolation-filters="sRGB">
<feFlood flood-opacity="0" result="BackgroundImageFix"/>
<feColorMatrix in="SourceAlpha" type="matrix" values="0 0 0 0 0 0 0 0 0 0 0 0 0 0 0 0 0 0 127 0" result="hardAlpha"/>
<feOffset dx="3" dy="3"/>
<feGaussianBlur stdDeviation="1.2"/>
<feComposite in2="hardAlpha" operator="out"/>
<feColorMatrix type="matrix" values="0 0 0 0 0 0 0 0 0 0 0 0 0 0 0 0 0 0 0.36 0"/>
<feBlend mode="normal" in2="BackgroundImageFix" result="effect1_dropShadow_1_2"/>
<feBlend mode="normal" in="SourceGraphic" in2="effect1_dropShadow_1_2" result="shape"/>
</filter>
<filter id="filter1_d_1_2" x="31.3325" y="66.019" width="47.6415" height="12.485" filterUnits="userSpaceOnUse" color-interpolation-filters="sRGB">
<feFlood flood-opacity="0" result="BackgroundImageFix"/>
<feColorMatrix in="SourceAlpha" type="matrix" values="0 0 0 0 0 0 0 0 0 0 0 0 0 0 0 0 0 0 127 0" result="hardAlpha"/>
<feOffset dx="3" dy="3"/>
<feGaussianBlur stdDeviation="1.2"/>
<feComposite in2="hardAlpha" operator="out"/>
<feColorMatrix type="matrix" values="0 0 0 0 0 0 0 0 0 0 0 0 0 0 0 0 0 0 0.36 0"/>
<feBlend mode="normal" in2="BackgroundImageFix" result="effect1_dropShadow_1_2"/>
<feBlend mode="normal" in="SourceGraphic" in2="effect1_dropShadow_1_2" result="shape"/>
</filter>
<filter id="filter2_d_1_2" x="31.5561" y="78.884" width="47.0935" height="24.732" filterUnits="userSpaceOnUse" color-interpolation-filters="sRGB">
<feFlood flood-opacity="0" result="BackgroundImageFix"/>
<feColorMatrix in="SourceAlpha" type="matrix" values="0 0 0 0 0 0 0 0 0 0 0 0 0 0 0 0 0 0 127 0" result="hardAlpha"/>
<feOffset dx="3" dy="3"/>
<feGaussianBlur stdDeviation="1.2"/>
<feComposite in2="hardAlpha" operator="out"/>
<feColorMatrix type="matrix" values="0 0 0 0 0 0 0 0 0 0 0 0 0 0 0 0 0 0 0.36 0"/>
<feBlend mode="normal" in2="BackgroundImageFix" result="effect1_dropShadow_1_2"/>
<feBlend mode="normal" in="SourceGraphic" in2="effect1_dropShadow_1_2" result="shape"/>
</filter>
<clipPath id="clip0_1_2">
<rect width="105" height="105" fill="white"/>
</clipPath>
</defs>
</svg>
